<svg width="110.4" height="70" viewBox="0 0 110.4 70" xmlns="http://www.w3.org/2000/svg"><g id="svgGroup" stroke-linecap="round" fill-rule="evenodd" font-size="9pt" stroke="#000" stroke-width="0.25mm" fill="none" style="stroke:#000;stroke-width:0.25mm;fill:none"><path d="M 107.7 19.4 L 101.1 19.4 Q 101.1 12.285 97.818 9.377 A 7.198 7.198 0 0 0 97.55 9.15 A 12.077 12.077 0 0 0 90.358 6.503 Q 90.008 6.487 89.65 6.487 A 16.25 16.25 0 0 0 89 6.5 L 85.4 6.6 A 19.296 19.296 0 0 0 83.998 6.706 Q 82.568 6.871 81.608 7.247 A 5.674 5.674 0 0 0 81.6 7.25 A 3.236 3.236 0 0 0 80.263 8.255 Q 79.916 8.684 79.64 9.262 A 6.935 6.935 0 0 0 79.45 9.7 Q 78.7 11.6 78.7 15.3 L 78.7 30.3 L 90.4 30.3 Q 90.306 28.709 90.038 22.478 A 3358.425 3358.425 0 0 1 90 21.6 L 97.7 21.6 L 97.7 45.9 L 91.1 45.9 A 20.39 20.39 0 0 0 91.001 43.816 Q 90.786 41.729 90.102 40.429 A 5.089 5.089 0 0 0 89.85 40 A 6.253 6.253 0 0 0 88.513 38.515 A 5.327 5.327 0 0 0 86.6 37.55 A 11.315 11.315 0 0 0 85.2 37.266 Q 83.553 37.032 81.3 37.1 L 78.7 37.2 L 78.7 53.6 A 121.843 121.843 0 0 1 78.661 56.78 Q 78.575 60.063 78.3 62.4 L 91.7 62.4 Q 96.8 62.4 100.35 58.95 A 10.432 10.432 0 0 0 102.836 54.997 Q 103.9 52.105 103.9 48 L 110.4 48 L 109.9 70 L 57.1 70 L 57.1 63.4 A 23.842 23.842 0 0 0 58.516 63.308 Q 60.194 63.145 61.2 62.75 Q 62.489 62.244 63.27 60.677 A 6.963 6.963 0 0 0 63.4 60.4 A 6.867 6.867 0 0 0 63.787 59.221 Q 64.099 57.923 64.175 56.004 A 32.887 32.887 0 0 0 64.2 54.7 L 64.2 16.4 A 129.556 129.556 0 0 1 64.239 13.115 Q 64.319 9.962 64.564 7.715 A 37.381 37.381 0 0 1 64.6 7.4 L 57.1 7.7 L 57.1 0 L 107.1 0 L 107.7 19.4 Z M 50.6 19.4 L 44 19.4 Q 44 12.285 40.718 9.377 A 7.198 7.198 0 0 0 40.45 9.15 A 12.077 12.077 0 0 0 33.258 6.503 Q 32.908 6.487 32.55 6.487 A 16.25 16.25 0 0 0 31.9 6.5 L 28.3 6.6 A 19.296 19.296 0 0 0 26.898 6.706 Q 25.468 6.871 24.508 7.247 A 5.674 5.674 0 0 0 24.5 7.25 A 3.236 3.236 0 0 0 23.163 8.255 Q 22.816 8.684 22.54 9.262 A 6.935 6.935 0 0 0 22.35 9.7 Q 21.6 11.6 21.6 15.3 L 21.6 32.7 L 31.9 32.7 A 37.369 37.369 0 0 1 31.855 32.002 Q 31.764 30.385 31.583 26.101 A 1903.801 1903.801 0 0 1 31.5 24.1 L 39.2 24.1 L 39.2 48.4 L 32.6 48.4 Q 32.6 44.4 31.35 42.45 A 6.052 6.052 0 0 0 30.078 41.001 A 5.088 5.088 0 0 0 28.05 40 A 12.893 12.893 0 0 0 26.656 39.746 Q 25 39.531 22.8 39.6 L 21.6 39.6 L 21.6 53.6 A 129.556 129.556 0 0 1 21.561 56.885 Q 21.481 60.038 21.236 62.285 A 37.381 37.381 0 0 1 21.2 62.6 A 51.016 51.016 0 0 1 22.956 62.469 Q 24.929 62.353 27.565 62.316 A 184.766 184.766 0 0 1 30.1 62.3 L 30.1 70 L 0 70 L 0 63.4 A 23.842 23.842 0 0 0 1.416 63.308 Q 3.094 63.145 4.1 62.75 Q 5.389 62.244 6.17 60.677 A 6.963 6.963 0 0 0 6.3 60.4 A 6.867 6.867 0 0 0 6.687 59.221 Q 6.999 57.923 7.075 56.004 A 32.887 32.887 0 0 0 7.1 54.7 L 7.1 16.4 A 129.556 129.556 0 0 1 7.139 13.115 Q 7.219 9.962 7.464 7.715 A 37.381 37.381 0 0 1 7.5 7.4 L 0 7.7 L 0 0 L 50 0 L 50.6 19.4 Z" vector-effect="non-scaling-stroke"/></g></svg>